<?xml version="1.0" encoding="UTF-8"?>
<svg width="125px" height="50px" viewBox="0 0 125 50" version="1.1" xmlns="http://www.w3.org/2000/svg" xmlns:xlink="http://www.w3.org/1999/xlink">
    <!-- Generator: Sketch 58 (84663) - https://sketch.com -->
    <title>Rectangle</title>
    <desc>Created with Sketch.</desc>
    <g id="Page-1" stroke="none" stroke-width="1" fill="none" fill-rule="evenodd">
        <g id="Desktop-HD" transform="translate(-596.000000, -939.000000)" stroke="#0C0C0C" stroke-width="5">
            <g id="Message" transform="translate(596.000000, 893.000000)">
                <g id="Group-8">
                    <g id="Group-4" transform="translate(0.000000, 46.000000)">
                        <g id="Group-2">
                            <path d="M12.455396,2.52016416 C7.55781541,2.52016416 5.19550257,4.08343585 3.91086448,7.67483186 C2.73566453,10.9602773 2.5,14.6555914 2.5,25.0008556 C2.5,35.3488773 2.7357337,39.0473713 3.91114709,42.3368963 C5.19648635,45.9340611 7.55930317,47.5 12.455396,47.5 C28.5257623,47.5 28.5257623,47.5 59.1239238,47.5 C74.9708906,47.5 74.9708906,47.5 86.8512633,47.5 C98.292454,47.5 98.292454,47.5 113.276401,47.5 C121.042642,47.5 122.5,42.9989339 122.5,25.0008556 C122.5,15.2119435 122.268659,11.3812998 121.152832,7.88392841 C119.895474,3.94295244 117.714794,2.30581891 113.398675,2.51717217 C108.471592,2.75844336 102.813319,2.75844336 81.5751372,2.61521574 C71.696803,2.5485975 65.6964181,2.52016416 59.1239238,2.52016416 C49.5337336,2.52016416 49.5337336,2.52016416 42.8778332,2.52016416 C38.8914357,2.52016416 38.8914357,2.52016416 35.2814163,2.52016416 C26.5401311,2.52016416 26.5401311,2.52016416 12.455396,2.52016416 Z" id="Rectangle"></path>
                        </g>
                    </g>
                </g>
            </g>
        </g>
    </g>
</svg>