<?xml version="1.0" encoding="UTF-8"?>
<svg width="103px" height="103px" viewBox="0 0 103 103" version="1.1" xmlns="http://www.w3.org/2000/svg" xmlns:xlink="http://www.w3.org/1999/xlink">
    <!-- Generator: Sketch 61.2 (89653) - https://sketch.com -->
    <title>Group 2</title>
    <desc>Created with Sketch.</desc>
    <g id="Page-1" stroke="none" stroke-width="1" fill="none" fill-rule="evenodd">
        <g id="iStock-647009354" transform="translate(0.000000, -885.000000)" fill="#0A0B09">
            <g id="Group-2" transform="translate(0.000000, 885.000000)">
                <g id="Group">
                    <path d="M32.599,20.0335 C33.3175,19.8265 34.0115,19.682 34.669,19.5875 C34.7685,18.2155 35.095,16.8655 35.636,15.5955 C34.2155,15.612 32.622,15.7725 30.947,16.1815 L32.599,20.0335" id="Fill-20"></path>
                    <path d="M25.3005,18.565 C22.879,20.0805 20.494,22.306 18.392,25.5595 C10.684,37.4905 1.097,35.45 0.7,35.3585 L-2.13162821e-14,38.2755 C0.138,38.3085 1.163,38.54 2.765,38.54 C6.2555,38.54 12.482,37.4355 18.2225,30.7905 C12.257,41.682 3.919,40.7265 3.555,40.679 L3.126,43.648 C3.211,43.6605 3.636,43.7165 4.3165,43.7165 C7.4965,43.716 16.254,42.5015 21.984,29.985 C23.4405,26.8025 25.226,24.5605 27.098,22.983 L25.3005,18.565" id="Fill-21"></path>
                    <path d="M31.5755,25.4795 L35.236,25.4795 C35.354,25.3765 35.4615,25.275 35.5565,25.1765 C35.371,24.724 35.215,24.265 35.086,23.8005 C34.4985,23.8035 33.6945,23.964 32.785,24.274 L22.3765,2.84217094e-14 L19.7645,0.9755 L29.8045,25.6565 C30.1675,25.59 30.536,25.549 30.9085,25.526 C31.1275,25.4985 31.349,25.4795 31.5755,25.4795" id="Fill-22"></path>
                </g>
                <path d="M100.1075,91.152 L74.4405,70.2355 C73.9095,69.8025 73.31,69.462 72.6665,69.228 L54.757,62.7085 L54.757,40.2445 C55.264,41.2715 55.7715,42.4135 56.2575,43.638 C56.9935,45.495 57.6805,47.541 58.239,49.6635 C58.6005,51.043 59.669,52.126 61.044,52.5055 L80.9605,58.0055 C81.3165,58.104 81.675,58.151 82.0275,58.151 C83.782,58.151 85.391,56.9875 85.881,55.215 C86.469,53.0855 85.2195,50.8825 83.09,50.2945 L65.321,45.387 C64.755,43.575 63.839,40.894 62.63,38.19 C60.6435,33.748 58.498,30.663 56.151,28.8705 C55.535,29.5395 54.8385,30.1525 54.0585,30.6895 C51.98,32.12 49.5525,32.8755 47.0385,32.8755 C42.951,32.8755 39.129,30.8675 36.814,27.504 C36.695,27.331 36.5815,27.1565 36.4725,26.9795 L31.5755,26.9795 C31.3945,26.9795 31.2175,26.9965 31.0435,27.0205 C26.757,27.2755 23.086,30.929 19.839,38.19 C17.7545,42.8505 16.5415,47.443 16.4905,47.636 C15.933,49.766 17.201,51.946 19.328,52.5145 L45.539,59.5145 C45.885,59.607 46.232,59.651 46.5735,59.651 C48.341,59.651 49.958,58.4705 50.436,56.6825 C51.006,54.5475 49.738,52.3555 47.6035,51.7855 L25.4135,45.8595 C25.817,44.6945 26.3155,43.363 26.897,42.014 C28.036,39.37 29.031,37.714 29.8075,36.679 L30.727,37.3705 C30.028,38.304 29.072,39.8725 27.953,42.469 C27.8715,42.6575 27.792,42.8585 27.7115,43.0525 L27.7115,45.2825 L47.9005,50.6745 C50.6435,51.407 52.2795,54.235 51.5475,56.979 C50.946,59.229 48.9005,60.8005 46.5735,60.801 C46.126,60.801 45.6775,60.742 45.242,60.6255 L27.7115,55.9435 L27.7115,61.1125 L26.2115,61.3155 L14.4155,62.914 C11.674,63.285 9.522,65.4485 9.1645,68.192 L5.657,95.1085 C5.22,98.463 7.585,101.5365 10.939,101.9735 C11.2075,102.0085 11.4745,102.0255 11.7385,102.0255 C14.769,102.0255 17.402,99.7775 17.804,96.6915 L20.706,74.4235 L38.178,72.0555 C39.5135,71.8745 40.6855,71.2715 41.5885,70.4045 C41.5935,70.4 41.598,70.395 41.603,70.3905 C41.608,70.395 41.612,70.4 41.617,70.4045 C42.2135,70.9775 42.933,71.4405 43.7605,71.7415 L54.6405,75.7025 C58.967,83.3675 61.7045,87.5975 62.506,88.8675 C64.354,91.796 66.9675,90.976 66.189,89.6885 C63.614,85.4315 61.1855,81.275 58.9035,77.2545 L67.504,80.385 L92.369,100.648 C93.5055,101.574 94.8745,102.0255 96.2345,102.0255 C98.0125,102.0255 99.7755,101.255 100.986,99.769 C103.123,97.147 102.73,93.2885 100.1075,91.152" id="Fill-23"></path>
                <path d="M37.7615,26.852 C41.284,31.971 48.288,33.2645 53.4065,29.742 C55.9735,27.9755 57.5775,25.3335 58.0955,22.4925 C57.08,22.672 55.954,22.775 54.764,22.775 C50.3395,22.775 46.7525,21.392 46.7525,19.6865 C46.7525,18.59 53.369,18.1995 58.0985,18.5125 C57.827,16.9745 57.2395,15.4675 56.2965,14.0965 C52.774,8.9785 45.7695,7.6845 40.651,11.207 C35.5325,14.7295 34.239,21.7345 37.7615,26.852" id="Fill-24"></path>
            </g>
        </g>
    </g>
</svg>