<?xml version="1.0" encoding="UTF-8"?>
<svg width="86px" height="102px" viewBox="0 0 86 102" version="1.1" xmlns="http://www.w3.org/2000/svg" xmlns:xlink="http://www.w3.org/1999/xlink">
    <!-- Generator: Sketch 58 (84663) - https://sketch.com -->
    <title>Group 2</title>
    <desc>Created with Sketch.</desc>
    <g id="Page-1" stroke="none" stroke-width="1" fill="none" fill-rule="evenodd">
        <g id="Desktop-HD" transform="translate(-1033.000000, -322.000000)" fill="#0A0B09">
            <g id="Group-2" transform="translate(1033.000000, 322.000000)">
                <g id="Group">
                    <path d="M64.0720235,101.33955 L69.1207294,101.33955 C71.9384941,101.33955 74.4163059,99.45969 75.1968824,96.73068 C75.9774588,94.00065 74.8721059,91.07937 72.4868706,89.56773 L69.4278,87.6282 L67.0106941,97.06116 C66.5538824,98.84361 65.4854588,100.33383 64.0720235,101.33955" id="Fill-78"></path>
                    <path d="M52.5131176,93.28512 L55.4932706,81.65406 L50.4111765,85.02873 C49.1864353,85.84218 47.7638941,86.27211 46.2978471,86.27211 L46.2447294,86.2716 C45.4378471,86.37666 44.5409176,86.40318 43.7532588,86.41389 L47.1851647,88.58955 L38.2619059,88.58955 C34.7698,88.58955 31.9383765,91.44351 31.9383765,94.96455 C31.9383765,98.48508 34.7698,101.33955 38.2619059,101.33955 L55.4583647,101.33955 C52.9871294,99.58158 51.7128118,96.40785 52.5131176,93.28512" id="Fill-79"></path>
                    <path d="M23.2918353,35.78568 C15.8766118,48.48672 4.6096,47.37237 4.12850588,47.3178 L3.76781176,50.35587 C3.86797647,50.36811 4.36323529,50.42217 5.15848235,50.42217 C8.92882353,50.42217 19.4263882,49.20429 26.3807529,36.51753 C28.1619647,33.2673 30.3499059,30.97077 32.6501529,29.34744 C31.4547529,28.52226 31.2670706,27.63588 31.4001176,26.93616 C31.6318118,25.70553 32.7816824,25.05579 34.8203882,25.00377 L35.1482,23.00916 C30.8932235,24.34485 26.4186941,26.94789 22.6726353,31.79034 C13.1109529,44.15121 1.09422353,41.97963 0.591882353,41.88324 L7.46069873e-14,44.88408 C0.162894118,44.91723 1.36537647,45.14316 3.24928235,45.14316 C7.70307059,45.14316 15.9636235,43.87122 23.2918353,35.78568" id="Fill-81"></path>
                    <path d="M41.0806824,25.95339 C42.4187412,25.73154 43.6632118,25.64637 44.7402353,25.63668 C44.4964,28.22493 45.1156,30.91008 46.6919294,33.21936 C50.2563765,38.44074 57.3427765,39.7596 62.5214941,36.16716 C65.1186941,34.36533 66.7410588,31.66998 67.2651529,28.77267 C66.2377059,28.95576 65.0989647,29.06082 63.8944588,29.06082 C59.4179059,29.06082 55.7892118,27.65016 55.7892118,25.91004 C55.7892118,24.79212 62.4835529,24.39381 67.2681882,24.71307 C66.9934941,23.1438 66.3995882,21.60717 65.4449882,20.20875 C61.8815529,14.98839 54.7946471,13.66851 49.6159294,17.26146 C47.9004824,18.45129 46.6200941,20.03484 45.7904471,21.80505 C44.5803765,21.72549 43.1942588,21.70254 41.6831882,21.80301 L41.0806824,25.95339" id="Fill-82"></path>
                    <path d="M41.8228118,28.94454 C41.9234824,28.41261 40.9031176,27.74247 39.3596706,27.2391 L43.2691294,0.33048 L40.4675529,-1.42108547e-14 L36.1002706,26.57763 C34.3322118,26.42106 32.9966824,26.66025 32.8904471,27.2238 C32.7811765,27.79857 33.9811294,28.53348 35.7360353,29.04756 C35.5878118,30.04563 35.2422941,32.2881 34.6676118,35.5776 C32.6794941,46.95672 27.9419059,70.9002 19.0702471,99.50253 C18.6159647,100.96725 21.3821294,101.1432 22.4910235,97.79301 C23.1623294,95.76474 26.1480471,87.10698 30.2072471,70.76454 C30.5492235,69.38754 30.8992941,67.95342 31.2559412,66.46677 C31.2301412,69.43038 31.4355294,72.59697 31.8569294,76.24806 C33.4398353,84.45957 39.0222471,85.30209 43.6581529,85.24242 C44.6036471,85.23069 45.4403765,85.19907 46.1728941,85.09758 C47.4077529,85.12257 48.6618353,84.78597 49.7712353,84.04902 L57.3751529,78.99951 L53.6392118,93.57837 C52.7660588,96.98721 54.7986941,100.4649 58.1800118,101.34516 C58.7106824,101.48388 59.2423647,101.54916 59.7664588,101.54916 C62.5801765,101.54916 65.1475294,99.64125 65.8840941,96.76791 L71.9830118,72.96723 L57.4277647,63.69696 L49.794,68.76636 C50.0241765,65.65791 50.4926235,62.54997 51.0207647,59.61594 L42.3398235,54.08754 C39.9110824,52.5402 39.1831176,49.28946 40.7174588,46.84095 C41.6786353,45.30789 43.3268,44.39295 45.1272353,44.39295 C46.1101647,44.39295 47.0708353,44.67396 47.9055412,45.20538 L53.0913412,48.50814 C53.2790235,44.24811 51.3678,40.06815 47.8574824,39.18636 C44.1326706,38.24949 38.9660941,39.88302 35.9803765,45.13959 C36.1731176,44.20068 36.3668706,43.24545 36.5611294,42.279 C36.9693765,40.24971 37.3806588,38.16279 37.7949765,36.01467 C38.1956353,33.93795 38.5983176,31.8087 39.0035294,29.61978 C40.5737882,29.70903 41.7241647,29.46627 41.8228118,28.94454" id="Fill-83"></path>
                    <path d="M47.2838118,46.19682 C45.3948471,44.99373 42.8952824,45.56238 41.7008941,47.46723 C40.5075176,49.37259 41.0715765,51.89199 42.9610471,53.09559 L79.5955294,76.42809 C80.2663294,76.85547 81.0140235,77.05947 81.7531176,77.05947 C83.0952235,77.05947 84.4084941,76.38627 85.1784471,75.15768 C86.3723294,73.25283 85.8082706,70.73292 83.9182941,69.52932 L47.2838118,46.19682" id="Fill-84"></path>
                </g>
                <path d="M71.516172,59.0184581 C70.5767586,58.3786682 69.5062517,57.9965571 68.4090909,57.8653846 L73.2954545,60.8076923 C72.836899,60.1212403 72.2390905,59.5104846 71.516172,59.0184581" id="Fill-80"></path>
            </g>
        </g>
    </g>
</svg>