<?xml version="1.0" encoding="UTF-8"?>
<svg width="119px" height="121px" viewBox="0 0 119 121" version="1.1" xmlns="http://www.w3.org/2000/svg" xmlns:xlink="http://www.w3.org/1999/xlink">
    <!-- Generator: Sketch 61.2 (89653) - https://sketch.com -->
    <title>Group 3</title>
    <desc>Created with Sketch.</desc>
    <g id="Page-1" stroke="none" stroke-width="1" fill="none" fill-rule="evenodd">
        <g id="iStock-647009354" transform="translate(-297.000000, -849.000000)" fill="#0A0B09">
            <g id="Group-3" transform="translate(356.500000, 909.250000) scale(-1, 1) translate(-356.500000, -909.250000) translate(297.000000, 849.000000)">
                <path d="M23.0205,40.815 C15.692,53.266 4.556,52.174 4.08,52.121 L3.7235,55.0995 C3.8225,55.111 4.312,55.164 5.098,55.164 C8.8235,55.164 19.2,53.971 26.0735,41.5325 C26.5735,40.6275 27.1085,39.804 27.6665,39.0425 L24.1395,34.9 C23.5495,35.5215 22.9695,36.179 22.409,36.8975 C12.958,49.0165 1.081,46.887 0.585,46.792 L0,49.7345 C0.161,49.7665 1.3495,49.9885 3.2115,49.9885 C7.6135,49.9885 15.7775,48.742 23.0205,40.815" id="Fill-25"></path>
                <path d="M36.385,32.3155 C38.785,31.389 41.1175,31.015 43.0645,30.9045 C43.175,29.58 43.498,28.2775 44.0205,27.0505 C41.047,26.9735 37.2525,27.302 33.36,28.7625 L36.385,32.3155" id="Fill-26"></path>
                <path d="M10.0895,80.903 C8.815,81.7025 10.7805,83.6105 13.7485,81.826 C15.446,80.8055 22.4765,76.6935 34.599,68.174 L34.599,64.5485 C27.3565,69.6765 19.123,75.236 10.0895,80.903" id="Fill-28"></path>
                <path d="M21.0875,24.203 C19.971,25.699 20.0365,27.768 21.247,29.1895 L36.0985,46.6325 L36.0985,76.355 L21.0845,80.7145 C19.1385,81.2795 17.598,82.7705 16.9695,84.697 L7.9695,112.2835 C6.9205,115.499 8.6765,118.9565 11.8925,120.006 C12.524,120.212 13.164,120.3095 13.7935,120.3095 C16.3725,120.3095 18.772,118.6675 19.6155,116.0825 L27.611,91.5755 L47.451,85.815 C48.4355,85.5295 49.2905,85.0155 49.982,84.351 C49.9845,84.348 49.9875,84.346 49.9905,84.343 C49.9935,84.3455 49.996,84.348 49.999,84.351 C50.5705,84.901 51.2595,85.348 52.0465,85.6505 L73.12,93.747 L93.603,118.1235 C94.8145,119.565 96.549,120.3095 98.2955,120.3095 C99.6865,120.3095 101.085,119.837 102.233,118.872 C104.8225,116.696 105.1575,112.8325 102.982,110.2425 L81.482,84.656 C80.815,83.8625 79.957,83.251 78.989,82.879 L63.1445,76.7915 L63.1445,54.1905 C64.42,56.7755 65.6995,60.087 66.6265,63.61 C66.988,64.9895 68.0565,66.0725 69.431,66.452 L89.348,71.952 C89.7045,72.0505 90.063,72.097 90.4155,72.097 C92.1695,72.097 93.779,70.934 94.2685,69.161 C94.857,67.0315 93.6075,64.8285 91.478,64.2405 L73.7085,59.334 C73.143,57.5215 72.227,54.8405 71.0175,52.1365 C68.5815,46.6885 65.9065,43.2715 62.9125,41.797 C62.76,41.9125 62.6055,42.026 62.446,42.136 C60.3675,43.566 57.9405,44.322 55.426,44.322 C52.22,44.322 49.1805,43.082 46.9,40.926 L41.7465,40.926 L29.407,26.433 L41.2505,10.575 L41.873,10.7745 C41.786,11.379 41.754,11.925 41.775,12.379 C41.8095,13.117 41.9855,13.6095 42.3025,13.6965 C42.8045,13.834 43.519,12.918 44.1235,11.486 C86.0845,23.1675 107.9105,25.8 111.319,26.259 C114.751,26.721 118.819,24.635 118.819,24.635 C79.113,18.8835 49.414,9.7265 45.042,8.3395 C45.353,6.5605 45.228,5.1785 44.6745,5.027 C44.5485,4.9925 44.4085,5.027 44.2605,5.117 C43.879,5.349 43.4425,5.9665 43.0385,6.8255 C43.031,5.615 42.481,4.422 41.436,3.6415 C39.667,2.32 37.1605,2.6825 35.8375,4.453 L35.1785,5.335 L17.4135,0 L16.485,2.629 L33.1955,7.9905 L21.0875,24.203" id="Fill-29"></path>
                <path d="M61.7945,41.1885 C64.361,39.422 65.965,36.78 66.483,33.939 C65.4675,34.1185 64.3415,34.2215 63.1515,34.2215 C58.727,34.2215 55.14,32.8385 55.14,31.133 C55.14,30.0365 61.7565,29.646 66.486,29.959 C66.2145,28.421 65.6275,26.914 64.684,25.543 C61.1615,20.425 54.157,19.131 49.0385,22.6535 C43.92,26.176 42.627,33.1805 46.149,38.299 C49.6715,43.4175 56.676,44.711 61.7945,41.1885" id="Fill-30"></path>
            </g>
        </g>
    </g>
</svg>