<?xml version="1.0" encoding="UTF-8"?>
<svg width="88px" height="84px" viewBox="0 0 88 84" version="1.1" xmlns="http://www.w3.org/2000/svg" xmlns:xlink="http://www.w3.org/1999/xlink">
    <!-- Generator: Sketch 58 (84663) - https://sketch.com -->
    <title>Group</title>
    <desc>Created with Sketch.</desc>
    <g id="Page-1" stroke="none" stroke-width="1" fill="none" fill-rule="evenodd">
        <g id="Desktop-HD" transform="translate(-774.000000, -645.000000)" fill="#0A0B09">
            <g id="Group" transform="translate(818.000000, 687.000000) scale(-1, 1) translate(-818.000000, -687.000000) translate(774.000000, 645.000000)">
                <path d="M30.9381147,53.6447827 L30.9536496,53.6040318 C31.3069432,52.6939287 31.6547244,51.8280982 32,51 C23.9895061,56.3665392 14.7021441,62.2744111 4.41653968,68.2829025 C3.11311181,69.0445919 5.01839161,71.0288077 8.05070305,69.3338728 C9.83471044,68.3367339 17.3691349,64.2475588 30.4595397,55.6008251 C30.572293,54.9895618 30.7231318,54.3541499 30.9250854,53.6870428 L30.9381147,53.6447827" id="Fill-156"></path>
                <path d="M76,63.5258433 L85.5730861,69 L87,66.5749112 L77.6528768,61 C77.3714693,62.0000623 76.7840704,62.869942 76,63.5258433" id="Fill-157"></path>
                <path d="M64.1642196,53 L64.091339,52.9476109 C64.9511188,51.0542923 65.2584848,49.4594698 64.7620517,49.0823899 C64.2566407,48.6973908 63.0720669,49.6933933 61.8764027,51.4076143 C61.2611426,50.9787544 60.1177622,50.1740331 58.5175578,49.0153806 L58,51.4971631 L64.1642196,53" id="Fill-158"></path>
                <path d="M3.86537255,12.6913859 C6.00790223,14.4861614 17.2206471,24.1337655 40.8055931,40 L41.3902495,39.95063 L42.9688737,38.2521011 L43,37.8661171 C31.5372068,30.2137608 16.3262837,19.4027193 0,6 C0,6 1.15686227,10.4223588 3.86537255,12.6913859" id="Fill-159"></path>
                <path d="M47.7647218,57.8433038 C47.0085482,56.6672811 46.7646873,55.2176244 47.0956414,53.8655505 L51.9708097,33.9677295 C52.5435754,31.6297682 54.6522548,29.9975212 57.0990606,29.9975212 C57.5130093,29.9975212 57.9295196,30.0463125 58.3352714,30.1418832 C61.1642625,30.8098722 62.9122737,33.6131119 62.2319223,36.3912014 L60.4408769,43.7008514 C61.1606763,42.841218 61.8528109,42.0152859 62.4952511,41.2371392 C66.1823661,37.4897615 67.34173,31.3113669 63.9891552,28.3552141 C60.6355557,25.3975522 53.9216968,24.5424459 48.1289762,29.8637222 C45.9982674,31.8440478 44.1667492,33.6885624 42.5437423,35.5320711 L43.7302587,36.885151 L43.5596586,39.0646661 L41.4248512,41.4121845 L37.8796468,41.7144897 C35.814514,44.9689237 34.0572812,48.6041316 32.23396,53.1985675 C29.9946409,60.4191859 33.6525541,63.823515 37.4892645,65.9648018 C37.5384465,65.9980001 37.5830177,66.0352223 37.6332244,66.0669116 L46.0167106,71.4249071 L28.4039097,71.4249071 C24.8669023,71.4249071 22,74.2397159 22,77.7124536 C22,81.1846882 24.8669023,84 28.4039097,84 L67.5958371,84 C70.430976,84 72.9285008,82.1695695 73.7348811,79.5011348 C74.5412614,76.8327001 73.4654046,73.9610519 71.0887856,72.4424836 L52.1885427,60.3643584 L51.1352276,60.1455518 C49.7489092,59.8578337 48.5203832,59.0183205 47.7647218,57.8433038 Z" id="Path"></path>
                <path d="M76.9111454,60.7389607 C77.3761503,58.5178369 75.9699428,56.3367889 73.7705814,55.8671829 L57.0059835,52.2881062 L60.8684753,36.0728236 C61.3940224,33.8655721 60.0483572,31.6459897 57.863241,31.1147286 C55.6786336,30.584495 53.4797809,31.9424478 52.953725,34.150213 L48.1128914,54.4742921 C47.8559686,55.5537696 48.0416653,56.6918194 48.6282634,57.6305178 C49.2148615,58.5687024 50.1530115,59.227384 51.2285262,59.4570491 L72.0876095,63.9100864 C72.3709878,63.9712276 72.6543661,64 72.9331655,64 C74.8155706,63.9994862 76.5061739,62.6728747 76.9111454,60.7389607" id="Fill-161"></path>
                <path d="M76.8406809,22.9536465 C77.5560909,22.1102041 82.990152,26.0586158 86.4836952,29.3337752 C87.2754836,27.976759 87.7933284,26.4370386 87.9501585,24.7781851 C88.5352162,18.5847651 83.9021089,13.0976342 77.6019179,12.5224916 C75.5147537,12.3317785 73.5075321,12.707198 71.734028,13.5156012 C67.4787386,9.53315157 59.1204072,3.91537472 47.4854469,6.39214206 C32.1878927,9.64377517 24.2908861,0.39193792 23.9650054,0 L21.5881129,1.8871085 C21.9409806,2.31708893 29.9917621,11.8592506 45.4196686,9.79144016 C31.5595539,14.6698909 23.5581637,6.68396812 23.2220992,6.33808166 L21,8.39888423 C21.3997131,8.81585011 30.992827,18.5447204 47.3275984,12.3042478 C57.1753066,8.54454698 64.6501957,12.6621477 68.4742024,15.7425895 C66.6309395,17.5385962 65.3936112,19.955797 65.1349433,22.6953579 C64.5493764,28.8892785 69.1824838,34.3759088 75.483184,34.9510515 C78.6426994,35.2393736 81.6209438,34.2372539 83.8797046,32.3861857 C82.9682569,31.8726119 82.0206568,31.2298937 81.08986,30.4660403 C77.6299232,27.6283697 75.7275945,24.2651119 76.8406809,22.9536465" id="Fill-180"></path>
            </g>
        </g>
    </g>
</svg>