<?xml version="1.0" encoding="UTF-8"?>
<svg width="150px" height="111px" viewBox="0 0 150 111" version="1.1" xmlns="http://www.w3.org/2000/svg" xmlns:xlink="http://www.w3.org/1999/xlink">
    <!-- Generator: Sketch 58 (84663) - https://sketch.com -->
    <title>Group</title>
    <desc>Created with Sketch.</desc>
    <g id="Page-1" stroke="none" stroke-width="1" fill="none" fill-rule="evenodd">
        <g id="Desktop-HD" transform="translate(-577.000000, -374.000000)" fill="#0A0B09">
            <g id="Group" transform="translate(652.000000, 429.500000) scale(-1, 1) translate(-652.000000, -429.500000) translate(577.000000, 374.000000)">
                <path d="M59.492781,33.2825796 C41.5088083,35.0492374 30.1912904,31.0535189 30.0434812,31 L29,34.0248863 C29.5175916,34.2154134 37.3379954,37.0005352 50.2928245,37 C53.2661235,37 56.5117026,36.8517527 60,36.4926412 C59.5213056,35.5041477 59.3423787,34.3952368 59.492781,33.2825796" id="Fill-8"></path>
                <path d="M115.344249,27.4890392 C115.109732,27.7967602 114.562525,28.3125543 113.527268,28.3125543 C112.980061,28.3125543 112.338835,28.1664385 111.612043,27.8767883 C111.074343,28.5867152 110.536643,29.2935441 110,29.9967589 C119.047405,30.2693708 125.828866,31.9272435 128.586029,32.7166822 C125.817774,36.5755862 125.622343,41.8574417 128.516308,45.9677889 C132.237422,51.2532586 139.63634,52.5889536 145.043444,48.9515467 C147.755183,47.1274221 149.449095,44.3992378 149.996303,41.4655621 C148.923544,41.6514338 147.734583,41.7572775 146.477486,41.7572775 C141.803512,41.7572775 138.014261,40.3291629 138.014261,38.5680281 C138.014261,37.4357593 145.003829,37.0325209 150,37.3557312 C149.712663,35.7675604 149.092566,34.2114008 148.096395,32.7956776 C144.449756,27.6165679 137.27532,26.2421496 131.900436,29.6121076 C129.267397,28.6827489 123.587746,26.9448481 115.726132,26 C115.811699,26.6381597 115.618909,27.1281383 115.344249,27.4890392" id="Fill-9"></path>
                <path d="M61.3111137,38.3097632 C43.3919689,41.5776841 31.0499871,38.0470321 30.8927273,38 L30,41.1133095 C30.465955,41.2522435 36.5191333,43 46.2205272,43 C51.9909557,42.9994594 59.0581156,42.371824 67,40.4283706 L64.4001832,39.9942697 C63.2003492,39.7937074 62.1286528,39.2006703 61.3111137,38.3097632" id="Fill-10"></path>
                <path d="M89.1526503,33 C93.4961004,31.9052012 97.6758011,31.2891413 101.587362,31.0042675 C102.985372,28.9902255 104.127523,27.3062926 105,26.0020119 C97.4608802,25.9497761 88.718203,26.9067153 79.2340486,29.8076896 C78.141022,30.1421067 77.0659056,30.4458286 76,30.7355491 L89.1526503,33" id="Fill-11"></path>
                <path d="M105.235957,34.291163 C107.106183,31.8149173 109.034643,29.233543 111.022897,26.5376723 C112.435056,27.3250955 113.607002,27.6186228 113.930405,27.1840567 C114.260047,26.7406433 113.614801,25.6674994 112.411658,24.5121262 L128,1.56131507 L125.556279,0 L109.691848,22.441302 C108.126827,21.5034721 106.78486,21.1235521 106.43598,21.5935079 C106.079301,22.0723112 106.861811,23.2859734 108.255772,24.5454343 C107.393711,25.805936 104.915153,29.3818679 101,34.6471428 L103.154114,35 C103.828477,34.7585166 104.525198,34.5232785 105.235957,34.291163" id="Fill-12"></path>
                <path d="M64.926504,80.0828681 C66.1900199,78.4993614 68.0191245,77.4837366 70.0771955,77.2227634 L70.6333315,77.1525984 C72.5370078,75.1824275 74.8991418,72.681224 77.6997778,69.6060815 L75.7362342,76.5054657 L89,74.8245358 L81.8694852,65.3754889 C81.7035371,65.1554032 81.547567,64.9191644 81.3821441,64.6334568 C80.8459638,63.8434702 80.3087333,62.961613 79.8644546,62 L79.610281,62.8944768 C74.1481743,69.0654581 68.0075712,75.7230509 61.2588419,82.6209207 C60.447482,83.4502804 61.6511305,84.4224939 63.3746796,83.8046386 C63.5274989,82.4634282 64.0495,81.1812775 64.926504,80.0828681" id="Fill-13"></path>
                <path d="M58.1927305,109.748881 L83.7161174,90.9331256 C83.8145648,90.8609555 83.9067615,90.7825995 84,90.7052745 L72.3175812,92.230124 C71.982131,92.2739415 71.6399092,92.296108 71.3018546,92.296108 C68.7099286,92.296108 66.3784453,90.9996251 64.9762217,89 L50.569572,99.6203341 C47.7432475,101.703986 47.1588141,105.660449 49.2642331,108.457553 C50.5169626,110.121072 52.4390299,111 54.3860997,111 C55.7112322,111 57.0483452,110.592755 58.1927305,109.748881" id="Fill-14"></path>
                <path d="M70.5125288,90 C70.7962809,90 71.0842059,89.9819784 71.3731741,89.9443906 L103.017277,85.8251783 C105.29564,85.528595 107.246958,84.069879 108.154547,81.9865873 C109.062137,79.9027808 108.791946,77.50128 107.442559,75.6651412 L96.7324797,61.0893084 C102.99224,56.8944056 110.608169,53.9630711 116.115777,51.6032773 C121.24105,49.9149152 125.249571,44.8457095 123.639382,40.6044656 C122.029715,36.3616769 116.378144,32.4664467 108.597388,34.6048328 C107.356494,34.9534212 106.183409,35.3061287 105.055702,35.6670747 L112.847933,36.9254941 C114.264607,37.1546253 115.505501,37.914105 116.343718,39.0643951 C117.180891,40.2146851 117.514195,41.6183067 117.282604,43.0162644 C116.855411,45.5933466 114.628165,47.4639839 111.985723,47.4639839 C111.69519,47.4639839 111.401006,47.4402984 111.112559,47.3934424 L88.8171507,43.792221 C86.9821506,45.130965 85.0955117,46.6447755 83.0612592,48.4016196 C77.5181817,53.9764585 79.2869382,58.8108691 81.7671616,62.5542033 C81.8959975,62.7838494 82.0352656,63.0098911 82.1953978,63.2276945 L90.4596793,74.4757186 L69.6685747,77.1820411 C66.0982007,77.6469972 63.5861595,80.8805788 64.0566456,84.404565 C64.4890547,87.6432957 67.2905856,90 70.5125288,90" id="Fill-15"></path>
                <path d="M112.166346,46.9418768 C112.394158,46.9808084 112.62041,47 112.843541,47 C114.845998,47 116.610761,45.4717979 116.944677,43.3212387 C117.316042,40.9299615 115.778571,38.6746708 113.510333,38.2837099 L65.833134,30.0587256 C63.5685372,29.6655713 61.4261684,31.2880866 61.0553237,33.6793637 C60.683959,36.0700925 62.2214298,38.3253832 64.4891473,38.7168924 L112.166346,46.9418768" id="Fill-16"></path>
                <polygon id="Fill-17" points="34 52 75 52 75 51 34 51"></polygon>
                <polygon id="Fill-18" points="25 56 66 56 66 55 25 55"></polygon>
                <polygon id="Fill-19" points="0 54 59 54 59 53 0 53"></polygon>
            </g>
        </g>
    </g>
</svg>