<?xml version="1.0" encoding="UTF-8"?>
<svg width="90px" height="124px" viewBox="0 0 90 124" version="1.1" xmlns="http://www.w3.org/2000/svg" xmlns:xlink="http://www.w3.org/1999/xlink">
    <!-- Generator: Sketch 58 (84663) - https://sketch.com -->
    <title>Group</title>
    <desc>Created with Sketch.</desc>
    <g id="Page-1" stroke="none" stroke-width="1" fill="none" fill-rule="evenodd">
        <g id="Desktop-HD" transform="translate(-989.000000, -554.000000)" fill="#0A0B09">
            <g id="Group" transform="translate(989.000000, 554.000000)">
                <path d="M56,21.8384426 C58.2398891,23.4960202 60.5622627,25.6488161 62.8856609,28.4517112 C73.9073293,41.7479199 83.9683865,43 87.3661322,43 C88.0654572,43 88.4824905,42.9473705 88.5680489,42.9353409 L88.1274486,39.958518 C88.0331806,39.9730537 79.3343982,41.0451912 68.6052679,30.238607 C76.8132421,36.3691882 83.5323971,37.409748 87.1396842,37.409748 C88.8513652,37.409748 89.863209,37.1756722 90,37.1420895 L89.2463685,34.226417 C89.1428787,34.2514786 78.7908203,36.6188023 65.0937858,23.2178359 C62.9210114,21.0921066 60.7840998,19.3844056 58.712766,18 L56,21.8384426" id="Fill-129"></path>
                <path d="M47.9010939,23.6615778 C47.629402,24.0369422 47.1977371,24.6287465 46.6165892,25.4122692 C47.6781807,25.7185141 48.681028,26.2977054 49.5920875,27 C49.9524202,26.540885 50.3127528,26.0802564 50.676757,25.614078 C52.0950097,26.3880148 53.2746141,26.6811421 53.6045257,26.2628933 C53.9402068,25.8355632 53.2976922,24.7901936 52.0934362,23.6610733 L68,1.53172883 L65.5479544,0 L49.3660272,21.6323903 C47.7946201,20.7116376 46.4445526,20.3327416 46.0889405,20.7858024 C45.7254608,21.2469355 46.5048703,22.4295351 47.9010939,23.6615778" id="Fill-130"></path>
                <path d="M4.27036839,80.6009501 C5.59201353,79.3252448 10.6382467,74.5719598 19,65.4443926 L18.8705414,63.5260082 L18.8705414,61 C13.3261047,67.1377123 7.10041864,73.7534965 0.266170936,80.6034903 C-0.836880145,81.709 1.68172663,83.0979997 4.27036839,80.6009501" id="Fill-131"></path>
                <path d="M20,57 L20,63.9399831 L23.5318347,118.055505 C23.76063,121.559166 26.8058863,124.213641 30.3315093,123.986438 C31.7337869,123.896481 32.9963026,123.359315 34.0005176,122.531205 C35.004215,123.359315 36.2672484,123.896481 37.6690084,123.986438 C41.195149,124.213641 44.2404052,121.559166 44.4692006,118.055505 L48,63.9446094 L48,57 L20,57" id="Fill-132"></path>
                <path d="M46,12.5 C46,6.14842222 40.8515778,1 34.5,1 C28.1489333,1 23,6.14842222 23,12.5 C23,18.8515778 28.1489333,24 34.5,24 C40.8515778,24 46,18.8515778 46,12.5 Z M26.3104667,12.3645556 C26.3104667,10.6206444 42.6890222,10.6206444 42.6890222,12.3645556 C42.6890222,14.1084667 39.0223111,15.5216889 34.5,15.5216889 C29.9771778,15.5216889 26.3104667,14.1084667 26.3104667,12.3645556 L26.3104667,12.3645556 Z" id="Fill-133"></path>
                <path d="M12.0002928,50.9304741 C11.987148,52.0055286 12.4170679,53.0403753 13.1946487,53.8053275 C13.9722295,54.5697772 15.0328021,55 16.1389017,55 L52.8610983,55 C53.9671979,55 55.0277705,54.5697772 55.8053513,53.8053275 C56.5829321,53.0403753 57.012852,52.0055286 56.9997072,50.9304741 C56.8974824,42.7798626 54.5466327,37.3523203 52.592075,34.2342101 C51.9412456,33.1958452 48.5137854,28.0160831 44.9352583,28.0160831 C44.9155989,28.0160831 44.8969742,28.0185961 44.8778321,28.0190987 C44.7510808,28.0070364 44.6232947,28 44.4939566,28 L24.5060434,28 C24.3767053,28 24.2484019,28.0070364 24.1221679,28.0190987 C24.1030258,28.0185961 24.0838838,28.0160831 24.0647417,28.0160831 C20.486732,28.0160831 17.0587544,33.1958452 16.407925,34.2342101 C14.45285,37.3523203 12.1025176,42.7803652 12.0002928,50.9304741 Z M38.6390785,46.958452 L38.6390785,46.4141397 C38.6390785,45.7175406 37.8247657,45.2395711 36.7072844,44.9802312 L36.7072844,38.7912548 C36.7072844,38.1921595 36.2028657,37.7021277 35.5861815,37.7021277 C35.0605514,37.7021277 34.6192497,38.0599765 34.5002587,38.5364383 C34.3807503,38.0599765 33.9394486,37.7021277 33.4133011,37.7021277 C32.7971343,37.7021277 32.2927156,38.1921595 32.2927156,38.7912548 L32.2927156,44.9802312 C31.1752343,45.2400737 30.3614388,45.7175406 30.3614388,46.4141397 L30.3614388,46.958452 L20.576234,46.958452 C21.0646147,43.4684202 22.0750041,40.9207572 23.0848761,39.1264868 L24.4631032,39.1264868 C23.5468719,40.6061317 22.5535551,42.7788574 21.9725683,45.8024795 L29.2656863,45.8024795 C29.4431382,45.2435919 29.9222066,44.5892109 31.1022876,44.1323505 L31.1022876,38.7912548 C31.1022876,37.553359 32.1390619,36.5461551 33.4138185,36.5461551 C33.8039022,36.5461551 34.1743266,36.6406433 34.5002587,36.8095158 C34.8256734,36.6406433 35.1960978,36.5461551 35.5861815,36.5461551 C36.8604207,36.5461551 37.8971951,37.553359 37.8971951,38.7912548 L37.8971951,44.1323505 C39.0777934,44.5892109 39.5568618,45.2435919 39.7343137,45.8024795 L47.0274317,45.8024795 C46.4464449,42.7788574 45.4531281,40.6061317 44.5374142,39.1264868 L45.9151239,39.1264868 C46.9249959,40.9207572 47.9353853,43.4684202 48.423766,46.958452 L38.6390785,46.958452 L38.6390785,46.958452 Z" id="Fill-134"></path>
            </g>
        </g>
    </g>
</svg>